# xmcd
#
# Track frame offsets:
#	150
#	22446
#	49615
#	75915
#	95559
#	117196
#	154067
#	182343
#	202667
#	265272
#	287567
#	312970
#
# Disc length: 4535 seconds
# Revision: 1
# Processed by: cddbd v1.5.2PL0 Copyright (c) Steve Scherf et al.
# Submitted via: dBpowerAMP V12.0
#
DISCID=9411b50c
DTITLE=Savoy Brown - Songs from the Road
DYEAR=2013
DGENRE=Blues Rock
TTITLE0=24/7
TTITLE1=Looking In
TTITLE2=Natural Man
TTITLE3=Street Corner Talking
TTITLE4=She's Got the Heat
TTITLE5=Time Does Tell
TTITLE6=Voodoo Moon
TTITLE7=Meet the Blues Head On
TTITLE8=Hellbound Train
TTITLE9=Shockwaves
TTITLE10=Tell Mama
TTITLE11=Wang Dang Doodle
EXTD=
EXTT0=
EXTT1=
EXTT2=
EXTT3=
EXTT4=
EXTT5=
EXTT6=
EXTT7=
EXTT8=
EXTT9=
EXTT10=
EXTT11=
PLAYORDER=
